<svg xmlns="http://www.w3.org/2000/svg" viewBox="0 0 800 450">
  <defs>
    <linearGradient id="bg" x1="0%" y1="0%" x2="100%" y2="100%">
      <stop offset="0%" stop-color="#0f172a"/>
      <stop offset="100%" stop-color="#1c1230"/>
    </linearGradient>
  </defs>
  <rect width="800" height="450" fill="url(#bg)"/>
  <!-- Shield outline -->
  <path d="M400 60 L500 100 L500 220 Q500 300 400 340 Q300 300 300 220 L300 100 Z" fill="#6366f1" opacity="0.08" stroke="#6366f1" stroke-width="1.5" stroke-opacity="0.3"/>
  <!-- Shield inner -->
  <path d="M400 90 L470 120 L470 215 Q470 275 400 308 Q330 275 330 215 L330 120 Z" fill="#6366f1" opacity="0.12"/>
  <!-- Check icon in shield -->
  <polyline points="365,205 390,230 435,180" fill="none" stroke="#14b8a6" stroke-width="4" stroke-linecap="round" stroke-linejoin="round"/>
  <!-- Transaction rows -->
  <rect x="520" y="100" width="220" height="36" rx="6" fill="#1e293b" opacity="0.8"/>
  <circle cx="545" cy="118" r="8" fill="#ef4444" opacity="0.7"/>
  <text x="562" y="122" font-family="system-ui" font-size="11" fill="#f87171">Suspicious</text>
  <text x="680" y="122" font-family="system-ui" font-size="11" fill="#f87171" text-anchor="end">$4,820</text>

  <rect x="520" y="146" width="220" height="36" rx="6" fill="#1e293b" opacity="0.8"/>
  <circle cx="545" cy="164" r="8" fill="#14b8a6" opacity="0.7"/>
  <text x="562" y="168" font-family="system-ui" font-size="11" fill="#5eead4">Legitimate</text>
  <text x="680" y="168" font-family="system-ui" font-size="11" fill="#5eead4" text-anchor="end">$120</text>

  <rect x="520" y="192" width="220" height="36" rx="6" fill="#1e293b" opacity="0.8"/>
  <circle cx="545" cy="210" r="8" fill="#ef4444" opacity="0.7"/>
  <text x="562" y="214" font-family="system-ui" font-size="11" fill="#f87171">Flagged</text>
  <text x="680" y="214" font-family="system-ui" font-size="11" fill="#f87171" text-anchor="end">$9,340</text>

  <rect x="520" y="238" width="220" height="36" rx="6" fill="#1e293b" opacity="0.8"/>
  <circle cx="545" cy="256" r="8" fill="#14b8a6" opacity="0.7"/>
  <text x="562" y="260" font-family="system-ui" font-size="11" fill="#5eead4">Legitimate</text>
  <text x="680" y="260" font-family="system-ui" font-size="11" fill="#5eead4" text-anchor="end">$55</text>

  <!-- Risk score -->
  <rect x="60" y="120" width="200" height="70" rx="8" fill="#1e293b" opacity="0.9"/>
  <text x="160" y="145" font-family="system-ui" font-size="12" fill="#94a3b8" text-anchor="middle">FRAUD RISK SCORE</text>
  <text x="160" y="175" font-family="system-ui" font-size="28" fill="#ef4444" text-anchor="middle" font-weight="700">87.4%</text>

  <!-- Title -->
  <text x="400" y="400" font-family="system-ui" font-size="18" fill="#5eead4" text-anchor="middle" font-weight="600">FraudShield</text>
  <text x="400" y="425" font-family="system-ui" font-size="13" fill="#475569" text-anchor="middle">AI-Powered Fraud Detection System</text>
</svg>
